<!-- Generator: Adobe Illustrator 19.0.0, SVG Export Plug-In  -->
<svg version="1.1"
	 xmlns="http://www.w3.org/2000/svg" xmlns:xlink="http://www.w3.org/1999/xlink" xmlns:a="http://ns.adobe.com/AdobeSVGViewerExtensions/3.0/"
	 x="0px" y="0px" width="1026px" height="472.5703px" viewBox="0 0 1026 472.5703"
	 style="enable-background:new 0 0 1026 472.5703;" xml:space="preserve">
<style type="text/css">
	.st0{fill:#FF9000;stroke:#FF9000;stroke-width:2;}
	.st1{fill:#FF8C00;stroke:#FF8C00;stroke-width:2;}
	.st2{fill:#F1790B;stroke:#F1790B;stroke-width:2;}
	.st3{fill:#F45A1D;stroke:#F45A1D;stroke-width:2;}
	.st4{fill:#F26708;stroke:#F26708;stroke-width:2;}
	.st5{fill:#F59726;stroke:#F59726;stroke-width:1.51;}
	.st6{fill:#F25F24;stroke:#F25F24;stroke-width:2;}
	.st7{fill:#F1521F;stroke:#F1521F;stroke-width:2;}
	.st8{fill:#EF5502;stroke:#EF5502;stroke-width:2;}
	.st9{fill:#F37615;stroke:#F37615;stroke-width:2;}
	.st10{fill:#F26E09;stroke:#F26E09;stroke-width:2;}
	.st11{fill:#EF6300;stroke:#EF6300;stroke-width:2;}
	.st12{fill:#F06801;stroke:#F06801;stroke-width:2;}
	.st13{fill:#F24709;stroke:#F24709;stroke-width:2;}
	.st14{fill:#F48E1D;stroke:#F48E1D;stroke-width:2;}
	.st15{fill:#F27B00;stroke:#F27B00;stroke-width:2;}
	.st16{fill:#EF3F01;stroke:#EF3F01;stroke-width:2;}
	.st17{fill:#EF5F18;stroke:#EF5F18;stroke-width:2;}
	.st18{fill:#F2851B;stroke:#F2851B;stroke-width:2;}
	.st19{fill:#F77700;stroke:#F77700;stroke-width:2;}
	.st20{fill:#F46920;stroke:#F46920;stroke-width:1.51;}
	.st21{fill:#F46802;stroke:#F46802;stroke-width:1.51;}
	.st22{fill:#F58614;stroke:#F58614;stroke-width:1.51;}
	.st23{fill:#F24700;stroke:#F24700;stroke-width:1.51;}
	.st24{fill:#EC6400;stroke:#EC6400;stroke-width:2;}
	.st25{fill:#F35412;stroke:#F35412;stroke-width:1.51;}
	.st26{fill:#F67518;stroke:#F67518;stroke-width:1.51;}
	.st27{fill:#F79E22;stroke:#F79E22;stroke-width:1.51;}
	.st28{fill:#F57C00;stroke:#F57C00;stroke-width:1.51;}
	.st29{fill:#F66F00;stroke:#F66F00;stroke-width:1.51;}
	.st30{fill:#F6641C;stroke:#F6641C;stroke-width:1.51;}
	.st31{fill:#F57902;stroke:#F57902;stroke-width:1.51;}
	.st32{fill:#F87F00;stroke:#F87F00;stroke-width:1.51;}
	.st33{fill:#FB7E00;stroke:#FB7E00;stroke-width:2;}
	.st34{fill:#FF7908;stroke:#FF7908;stroke-width:1.51;}
	.st35{fill:#FC781D;stroke:#FC781D;stroke-width:1.51;}
	.st36{fill:#F99A1C;stroke:#F99A1C;stroke-width:2;}
	.st37{fill:#F99300;stroke:#F99300;stroke-width:2;}
	.st38{fill:#FB7E00;stroke:#FB7E00;stroke-width:1.51;}
	.st39{fill:#FB9000;stroke:#FB9000;stroke-width:1.51;}
	.st40{fill:#FB861A;stroke:#FB861A;stroke-width:1.51;}
	.st41{fill:#FE8D26;stroke:#FE8D26;stroke-width:1.51;}
	.st42{fill:#FFBD27;stroke:#FFBD27;stroke-width:2;}
	.st43{fill:#FCB124;stroke:#FCB124;stroke-width:2;}
	.st44{fill:#FE8F00;stroke:#FE8F00;stroke-width:1.51;}
	.st45{fill:#FE8E00;stroke:#FE8E00;stroke-width:1.51;}
	.st46{fill:#FF9600;stroke:#FF9600;stroke-width:1.51;}
	.st47{fill:#FEA115;stroke:#FEA115;stroke-width:2;}
	.st48{fill:#FEA100;stroke:#FEA100;stroke-width:2;}
	.st49{fill:#FF9810;stroke:#FF9810;stroke-width:2;}
	.st50{fill:#FF8C1D;stroke:#FF8C1D;stroke-width:1.51;}
	.st51{fill:#FF770B;stroke:#FF770B;stroke-width:1.51;}
	.st52{fill:#FF9F00;stroke:#FF9F00;stroke-width:2;}
	.st53{fill:#FF8700;stroke:#FF8700;stroke-width:1.51;}
	.st54{fill:#F78700;stroke:#F78700;stroke-width:2;}
	.st55{fill:#FF7F00;stroke:#FF7F00;stroke-width:1.51;}
	.st56{fill:#F26A00;stroke:#F26A00;stroke-width:2;}
	.st57{fill:#FF9200;stroke:#FF9200;stroke-width:1.51;}
	.st58{fill:#FF7C28;stroke:#FF7C28;stroke-width:1.51;}
	.st59{fill:#FF8800;stroke:#FF8800;stroke-width:1.51;}
	.st60{fill:#FF7119;stroke:#FF7119;stroke-width:1.51;}
	.st61{fill:#FFA61F;stroke:#FFA61F;stroke-width:2;}
	.st62{fill:#FF7B00;stroke:#FF7B00;stroke-width:1.51;}
	.st63{fill:#FF961A;stroke:#FF961A;stroke-width:2;}
	.st64{fill:#F25B00;stroke:#F25B00;stroke-width:2;}
	.st65{fill:#FF731E;stroke:#FF731E;stroke-width:1.51;}
	.st66{fill:#FF7400;stroke:#FF7400;stroke-width:1.51;}
	.st67{fill:#FF7100;stroke:#FF7100;stroke-width:1.51;}
	.st68{fill:#FF5E04;stroke:#FF5E04;stroke-width:1.51;}
	.st69{fill:#FF4A00;stroke:#FF4A00;stroke-width:1.51;}
	.st70{fill:#FF7C07;stroke:#FF7C07;stroke-width:1.51;}
	.st71{fill:#FF7306;stroke:#FF7306;stroke-width:2;}
	.st72{fill:#FF6D0A;stroke:#FF6D0A;stroke-width:2;}
	.st73{fill:#F65A00;stroke:#F65A00;stroke-width:2;}
	.st74{fill:#FF450E;stroke:#FF450E;stroke-width:1.51;}
	.st75{fill:#FF5F23;stroke:#FF5F23;stroke-width:1.51;}
	.st76{fill:#FF7E00;stroke:#FF7E00;stroke-width:1.51;}
	.st77{fill:#FF521F;stroke:#FF521F;stroke-width:1.51;}
	.st78{fill:#FF7B00;stroke:#FF7B00;stroke-width:2;}
	.st79{fill:#FB6903;stroke:#FB6903;stroke-width:2;}
	.st80{fill:#FF6E0B;stroke:#FF6E0B;stroke-width:1.51;}
	.st81{fill:#FF690D;stroke:#FF690D;stroke-width:1.51;}
	.st82{fill:#FF5A06;stroke:#FF5A06;stroke-width:1.51;}
	.st83{fill:#FF6F0B;stroke:#FF6F0B;stroke-width:2;}
	.st84{fill:#FF8922;stroke:#FF8922;stroke-width:2;}
	.st85{fill:#FF6E19;stroke:#FF6E19;stroke-width:1.51;}
	.st86{fill:#FF5C2A;stroke:#FF5C2A;stroke-width:1.51;}
	.st87{fill:#FF6723;stroke:#FF6723;stroke-width:1.51;}
	.st88{fill:#FF6629;stroke:#FF6629;stroke-width:1.51;}
	.st89{fill:#FF7B1F;stroke:#FF7B1F;stroke-width:2;}
	.st90{fill:#FF500F;stroke:#FF500F;stroke-width:2;}
	.st91{fill:#FF602F;stroke:#FF602F;stroke-width:1.51;}
	.st92{fill:#FF6C1E;stroke:#FF6C1E;stroke-width:2;}
	.st93{fill:#FF7721;stroke:#FF7721;stroke-width:1.51;}
	.st94{fill:#FF7226;stroke:#FF7226;stroke-width:2;}
	.st95{fill:#FF5D2C;stroke:#FF5D2C;stroke-width:1.51;}
	.st96{fill:#FF7F20;stroke:#FF7F20;stroke-width:2;}
	.st97{fill:#FF6B2E;stroke:#FF6B2E;stroke-width:1.51;}
	.st98{fill:#FF4E19;stroke:#FF4E19;stroke-width:2;}
	.st99{fill:#FF6A24;stroke:#FF6A24;stroke-width:1.51;}
	.st100{fill:#FB7924;stroke:#FB7924;stroke-width:2;}
	.st101{fill:#F97729;stroke:#F97729;stroke-width:2;}
	.st102{fill:#FF7132;stroke:#FF7132;stroke-width:1.51;}
	.st103{fill:#FF782B;stroke:#FF782B;stroke-width:1.51;}
	.st104{fill:#FF7026;stroke:#FF7026;stroke-width:1.51;}
	.st105{fill:#FF6A3B;stroke:#FF6A3B;stroke-width:1.51;}
	.st106{fill:#FF8934;stroke:#FF8934;stroke-width:2;}
	.st107{fill:#FF7226;stroke:#FF7226;stroke-width:1.51;}
	.st108{fill:#FF9E3D;stroke:#FF9E3D;stroke-width:2;}
	.st109{fill:#FF7D2F;stroke:#FF7D2F;stroke-width:1.51;}
	.st110{fill:#FF723C;stroke:#FF723C;stroke-width:1.51;}
	.st111{fill:#FFA73F;stroke:#FFA73F;stroke-width:2;}
	.st112{fill:#FFA93C;stroke:#FFA93C;stroke-width:2;}
	.st113{fill:#FF842A;stroke:#FF842A;stroke-width:1.51;}
	.st114{fill:#FF662E;stroke:#FF662E;stroke-width:1.51;}
	.st115{fill:#FF7925;stroke:#FF7925;stroke-width:1.51;}
	.st116{fill:#FF8224;stroke:#FF8224;stroke-width:1.51;}
	.st117{fill:#FF5E21;stroke:#FF5E21;stroke-width:1.51;}
	.st118{fill:#FF7935;stroke:#FF7935;stroke-width:1.51;}
	.st119{fill:#FF7A22;stroke:#FF7A22;stroke-width:1.51;}
	.st120{fill:#FF7A1C;stroke:#FF7A1C;stroke-width:1.51;}
	.st121{fill:#FC8523;stroke:#FC8523;stroke-width:2;}
	.st122{fill:#FF8E23;stroke:#FF8E23;stroke-width:2;}
	.st123{fill:#FF961B;stroke:#FF961B;stroke-width:2;}
	.st124{fill:#FF7F2C;stroke:#FF7F2C;stroke-width:1.51;}
	.st125{fill:#FFAC35;stroke:#FFAC35;stroke-width:2;}
	.st126{fill:#FF8229;stroke:#FF8229;stroke-width:1.51;}
	.st127{fill:#FF8D13;stroke:#FF8D13;stroke-width:1.51;}
	.st128{fill:#FF8818;stroke:#FF8818;stroke-width:1.51;}
	.st129{fill:#FF6F29;stroke:#FF6F29;stroke-width:1.51;}
	.st130{fill:#FF7629;stroke:#FF7629;stroke-width:1.51;}
	.st131{fill:#FF8B13;stroke:#FF8B13;stroke-width:1.51;}
	.st132{fill:#FF9A2A;stroke:#FF9A2A;stroke-width:2;}
	.st133{fill:#FF7217;stroke:#FF7217;stroke-width:1.51;}
	.st134{fill:#FF690E;stroke:#FF690E;stroke-width:1.51;}
	.st135{fill:#FF9220;stroke:#FF9220;stroke-width:2;}
	.st136{fill:#F9840D;stroke:#F9840D;stroke-width:2;}
	.st137{fill:#FF8403;stroke:#FF8403;stroke-width:1.51;}
	.st138{fill:#FF8D0C;stroke:#FF8D0C;stroke-width:2;}
	.st139{fill:#FF8310;stroke:#FF8310;stroke-width:1.51;}
	.st140{fill:#FF6D04;stroke:#FF6D04;stroke-width:1.51;}
	.st141{fill:#FF7F2A;stroke:#FF7F2A;stroke-width:1.51;}
	.st142{fill:#FF8600;stroke:#FF8600;stroke-width:1.51;}
	.st143{fill:#FA8900;stroke:#FA8900;stroke-width:2;}
	.st144{fill:#FF9800;stroke:#FF9800;stroke-width:1.51;}
	.st145{fill:#FF831F;stroke:#FF831F;stroke-width:1.51;}
	.st146{fill:#FF7300;stroke:#FF7300;stroke-width:1.51;}
	.st147{fill:#FF9514;stroke:#FF9514;stroke-width:2;}
	.st148{fill:#FF8C00;stroke:#FF8C00;stroke-width:1.51;}
	.st149{fill:#FF771C;stroke:#FF771C;stroke-width:1.51;}
	.st150{fill:#FF7317;stroke:#FF7317;stroke-width:1.51;}
	.st151{fill:#FF8A00;stroke:#FF8A00;stroke-width:1.51;}
	.st152{fill:#FF7829;stroke:#FF7829;stroke-width:1.51;}
	.st153{fill:#FFB025;stroke:#FFB025;stroke-width:2;}
	.st154{fill:#F36D00;stroke:#F36D00;stroke-width:2;}
	.st155{fill:#F67400;stroke:#F67400;stroke-width:2;}
	.st156{fill:#FF840A;stroke:#FF840A;stroke-width:1.51;}
	.st157{fill:#FF6E1D;stroke:#FF6E1D;stroke-width:1.51;}
	.st158{fill:#FF6707;stroke:#FF6707;stroke-width:1.51;}
	.st159{fill:#FFAB25;stroke:#FFAB25;stroke-width:2;}
	.st160{fill:#FF6E18;stroke:#FF6E18;stroke-width:1.51;}
	.st161{fill:#FF7800;stroke:#FF7800;stroke-width:1.51;}
	.st162{fill:#FF7C00;stroke:#FF7C00;stroke-width:1.51;}
	.st163{fill:#FF6A00;stroke:#FF6A00;stroke-width:1.51;}
	.st164{fill:#FFA522;stroke:#FFA522;stroke-width:2;}
	.st165{fill:#FF7D1A;stroke:#FF7D1A;stroke-width:1.51;}
	.st166{fill:#FF7323;stroke:#FF7323;stroke-width:1.51;}
	.st167{fill:#FF9015;stroke:#FF9015;stroke-width:1.51;}
	.st168{fill:#FF5B06;stroke:#FF5B06;stroke-width:1.51;}
	.st169{fill:#FF7E21;stroke:#FF7E21;stroke-width:1.51;}
	.st170{fill:#FF750C;stroke:#FF750C;stroke-width:1.51;}
	.st171{fill:#F97A02;stroke:#F97A02;stroke-width:2;}
	.st172{fill:#FF6F20;stroke:#FF6F20;stroke-width:1.51;}
	.st173{fill:#FF6A21;stroke:#FF6A21;stroke-width:1.51;}
	.st174{fill:#FF7C08;stroke:#FF7C08;stroke-width:1.51;}
	.st175{fill:#FF8611;stroke:#FF8611;stroke-width:1.51;}
	.st176{fill:#FF8B07;stroke:#FF8B07;stroke-width:1.51;}
	.st177{fill:#FF880F;stroke:#FF880F;stroke-width:1.51;}
	.st178{fill:#FF7D0A;stroke:#FF7D0A;stroke-width:1.51;}
	.st179{fill:#FF7D04;stroke:#FF7D04;stroke-width:1.51;}
	.st180{fill:#FFA926;stroke:#FFA926;stroke-width:1.51;}
	.st181{fill:#FFA926;stroke:#FFA926;stroke-width:2;}
	.st182{fill:#FF8D0B;stroke:#FF8D0B;stroke-width:1.51;}
	.st183{fill:#FF9E19;stroke:#FF9E19;stroke-width:1.51;}
	.st184{fill:#FFA528;stroke:#FFA528;stroke-width:1.51;}
	.st185{fill:#FFB42C;stroke:#FFB42C;stroke-width:2;}
	.st186{fill:#F99719;stroke:#F99719;stroke-width:2;}
	.st187{fill:#FC930F;stroke:#FC930F;stroke-width:2;}
	.st188{fill:#FF951A;stroke:#FF951A;stroke-width:1.51;}
	.st189{fill:#FF882F;stroke:#FF882F;stroke-width:1.51;}
	.st190{fill:#FF862F;stroke:#FF862F;stroke-width:1.51;}
	.st191{fill:#FF9A30;stroke:#FF9A30;stroke-width:1.51;}
	.st192{fill:#FF981B;stroke:#FF981B;stroke-width:1.51;}
	.st193{fill:#FFC435;stroke:#FFC435;stroke-width:2;}
	.st194{fill:#FFBB24;stroke:#FFBB24;stroke-width:2;}
	.st195{fill:#FFAA26;stroke:#FFAA26;stroke-width:1.51;}
	.st196{fill:#FF9C1D;stroke:#FF9C1D;stroke-width:1.51;}
	.st197{fill:#FFD43E;stroke:#FFD43E;stroke-width:2;}
	.st198{fill:#FF9331;stroke:#FF9331;stroke-width:1.51;}
	.st199{fill:#FF8B21;stroke:#FF8B21;stroke-width:1.51;}
	.st200{fill:#FFAC28;stroke:#FFAC28;stroke-width:1.51;}
	.st201{fill:#FFA11E;stroke:#FFA11E;stroke-width:1.51;}
	.st202{fill:#FFC133;stroke:#FFC133;stroke-width:2;}
	.st203{fill:#FFB526;stroke:#FFB526;stroke-width:1.51;}
	.st204{fill:#FFA624;stroke:#FFA624;stroke-width:1.51;}
	.st205{fill:#FF9A20;stroke:#FF9A20;stroke-width:1.51;}
	.st206{fill:#FFA735;stroke:#FFA735;stroke-width:1.51;}
	.st207{fill:#FFA340;stroke:#FFA340;stroke-width:1.51;}
	.st208{fill:#FF9F22;stroke:#FF9F22;stroke-width:1.51;}
	.st209{fill:#FCB125;stroke:#FCB125;stroke-width:2;}
	.st210{fill:#FFB92F;stroke:#FFB92F;stroke-width:2;}
	.st211{fill:#FFA33C;stroke:#FFA33C;stroke-width:1.51;}
	.st212{fill:#FFB030;stroke:#FFB030;stroke-width:2;}
	.st213{fill:#FFA73F;stroke:#FFA73F;stroke-width:1.51;}
	.st214{fill:#FFAD25;stroke:#FFAD25;stroke-width:1.51;}
	.st215{fill:#FFB329;stroke:#FFB329;stroke-width:2;}
	.st216{fill:#FFBE27;stroke:#FFBE27;stroke-width:2;}
	.st217{fill:#FFB226;stroke:#FFB226;stroke-width:2;}
	.st218{fill:#FDB526;stroke:#FDB526;stroke-width:2;}
	.st219{fill:#FFBC31;stroke:#FFBC31;stroke-width:2;}
	.st220{fill:#FFAF32;stroke:#FFAF32;stroke-width:1.51;}
	.st221{fill:#FF9829;stroke:#FF9829;stroke-width:1.51;}
	.st222{fill:#FFA724;stroke:#FFA724;stroke-width:2;}
	.st223{fill:#FF9726;stroke:#FF9726;stroke-width:2;}
	.st224{fill:#FFC637;stroke:#FFC637;stroke-width:2;}
	.st225{fill:#FFAE33;stroke:#FFAE33;stroke-width:2;}
	.st226{fill:#FFA524;stroke:#FFA524;stroke-width:2;}
	.st227{fill:#FFA640;stroke:#FFA640;stroke-width:2;}
	.st228{fill:#FFA038;stroke:#FFA038;stroke-width:2;}
</style>
<defs>
</defs>
<g id="XMLID_15_">
	<polygon id="XMLID_258_" class="st0" points="287.3877,471.2744 294.634,469.7373 287.1592,469.7373 	"/>
	<polygon id="XMLID_257_" class="st1" points="280.5562,469.7373 287.3877,471.2744 287.1592,469.7373 	"/>
	<polygon id="XMLID_256_" class="st2" points="1025,469.7373 1025,404.8726 1014.5005,469.7373 	"/>
	<polygon id="XMLID_255_" class="st3" points="1025,332.3833 1025,303.4553 1003.9358,318.021 	"/>
	<polygon id="XMLID_254_" class="st4" points="1025,144.658 1025,98.4539 956.4236,142.2261 	"/>
	<polygon id="XMLID_253_" class="st5" points="1025.0938,1.9248 1024.8386,1.9248 1025.0938,2.3096 	"/>
	<polygon id="XMLID_252_" class="st6" points="1025,271.8867 1025,195.939 967.5098,277.6357 	"/>
	<polygon id="XMLID_251_" class="st7" points="1003.9827,318.021 1025,303.4553 1025,271.8867 967.5332,277.6357 	"/>
	<polygon id="XMLID_250_" class="st8" points="956.4705,142.2261 1025,98.4539 1025,42.2397 1001.5835,26.6133 	"/>
	<polygon id="XMLID_249_" class="st9" points="1025,42.2397 1025,19.916 1001.5601,26.6133 	"/>
	<polygon id="XMLID_248_" class="st10" points="1025,162.667 977.0122,181.0278 1025,191.5251 	"/>
	<polygon id="XMLID_247_" class="st11" points="977.0591,181.0278 1025,162.667 1025,144.658 956.447,142.2261 	"/>
	<polygon id="XMLID_246_" class="st12" points="988.1453,387.9167 1002.6265,469.7373 1014.5005,469.7373 1025,404.8726 
		1025,388.4436 	"/>
	<polygon id="XMLID_245_" class="st13" points="1025,380.512 1025,332.3833 1003.9358,318.021 	"/>
	<polygon id="XMLID_244_" class="st14" points="1001.6538,26.5195 996.1919,1.7373 947.8806,1.7373 947.8069,1.9246 	"/>
	<polygon id="XMLID_243_" class="st15" points="988.1921,387.9167 939.0962,461.6664 952.0769,469.7373 1002.6265,469.7373 	"/>
	<polygon id="XMLID_242_" class="st16" points="988.1453,387.7056 1025,388.4436 1025,380.512 1003.9592,318.021 	"/>
	<polygon id="XMLID_241_" class="st17" points="1025,195.939 1025,191.5251 977.0591,181.0278 967.5332,277.6357 	"/>
	<polygon id="XMLID_240_" class="st18" points="1025,19.916 1025,2.3096 1024.8386,1.7373 996.1919,1.7373 1001.6069,26.5195 	"/>
	<polygon id="XMLID_239_" class="st19" points="956.4714,142.2261 905,32.1563 905,119.262 	"/>
	<polygon id="XMLID_238_" class="st20" points="967.6035,277.6357 977.106,181.0278 925.6345,254.6716 	"/>
	<polygon id="XMLID_237_" class="st21" points="1001.6538,26.6133 905.0459,32.1563 956.5173,142.2261 	"/>
	<polygon id="XMLID_236_" class="st22" points="947.8069,2.0652 905.0459,32.1563 1001.6538,26.6133 	"/>
	<polygon id="XMLID_235_" class="st23" points="915.3401,369.4927 988.1921,387.7056 1004.0295,318.021 	"/>
	<polygon id="XMLID_234_" class="st24" points="938.2456,469.7373 952.0769,469.7373 939.0962,461.772 	"/>
	<polygon id="XMLID_233_" class="st25" points="1004.0295,318.021 967.6035,277.6357 915.3401,369.4927 	"/>
	<polygon id="XMLID_232_" class="st26" points="925.6345,254.6716 977.106,181.0278 914.5483,193.6975 	"/>
	<polygon id="XMLID_231_" class="st27" points="947.8806,1.9248 947.6738,1.9248 947.8069,2.0652 	"/>
	<polygon id="XMLID_230_" class="st28" points="939.0962,461.3496 988.1921,387.7056 902.6702,437.5933 	"/>
	<polygon id="XMLID_229_" class="st29" points="902.6702,437.5933 988.1921,387.7056 915.3401,369.4927 	"/>
	<polygon id="XMLID_228_" class="st30" points="967.6035,277.6357 925.6345,254.6716 915.3401,369.4927 	"/>
	<polygon id="XMLID_227_" class="st31" points="977.106,181.0278 956.5173,142.2261 914.5483,193.6975 	"/>
	<polygon id="XMLID_226_" class="st15" points="915.4492,469.7373 938.2456,469.7373 939.0962,461.772 	"/>
	<polygon id="XMLID_225_" class="st32" points="914.5483,193.6975 956.5173,142.2261 905.0459,119.262 	"/>
	<polygon id="XMLID_224_" class="st33" points="905,32.1563 868.574,84.4197 905,119.262 	"/>
	<polygon id="XMLID_223_" class="st34" points="862.2849,375.0359 915.3401,369.4927 815.5647,289.5137 	"/>
	<polygon id="XMLID_222_" class="st35" points="915.3401,369.4927 925.6345,254.6716 815.5647,289.5137 	"/>
	<polygon id="XMLID_221_" class="st36" points="947.8069,1.9714 947.6738,1.7373 912.7046,1.7373 905.0459,32.0156 	"/>
	<polygon id="XMLID_220_" class="st37" points="902.6702,437.8044 877.6001,469.7373 915.4492,469.7373 939.0962,461.6664 	"/>
	<polygon id="XMLID_219_" class="st38" points="862.2849,375.0359 902.6702,437.5933 915.3401,369.4927 	"/>
	<polygon id="XMLID_218_" class="st39" points="914.5483,193.6975 905.0459,119.262 845.6558,181.0278 	"/>
	<polygon id="XMLID_217_" class="st40" points="925.6345,254.6716 914.5483,193.6975 845.6558,181.0278 	"/>
	<polygon id="XMLID_216_" class="st41" points="815.5647,289.5137 925.6345,254.6716 845.6558,181.0278 	"/>
	<polygon id="XMLID_215_" class="st42" points="888.3931,1.7373 861.6365,1.7373 905.0459,31.9688 	"/>
	<polygon id="XMLID_214_" class="st43" points="912.7046,1.7373 888.3931,1.7373 905.0459,31.9688 	"/>
	<polygon id="XMLID_213_" class="st44" points="821.8994,399.5837 902.6702,437.5933 862.2849,375.0359 	"/>
	<polygon id="XMLID_212_" class="st45" points="905.0459,119.262 868.6199,84.4197 818.7319,106.592 	"/>
	<polygon id="XMLID_211_" class="st46" points="905.0459,119.262 818.7319,106.592 845.6558,181.0278 	"/>
	<polygon id="XMLID_210_" class="st47" points="868.6199,84.3259 905.0459,32.0156 861.6365,1.7373 830.8096,1.7373 	"/>
	<polygon id="XMLID_209_" class="st48" points="855.4973,469.7373 877.6001,469.7373 902.6702,437.8044 821.8994,399.9005 	"/>
	<polygon id="XMLID_208_" class="st49" points="868.6199,84.3259 830.8096,1.7373 804.1233,1.7373 780.7224,62.1067 	"/>
	<polygon id="XMLID_207_" class="st50" points="845.6558,181.0278 786.2654,178.6521 815.5647,289.5137 	"/>
	<polygon id="XMLID_206_" class="st51" points="800.519,358.4065 862.2849,375.0359 815.5647,289.5137 	"/>
	<polygon id="XMLID_205_" class="st52" points="821.8994,399.7949 760.1338,460.0826 796.9258,469.7373 855.4973,469.7373 	"/>
	<polygon id="XMLID_204_" class="st53" points="868.6199,84.4197 780.7224,62.2473 818.7319,106.592 	"/>
	<polygon id="XMLID_203_" class="st54" points="767.9534,469.7373 796.9258,469.7373 760.1338,460.1882 	"/>
	<polygon id="XMLID_202_" class="st55" points="800.519,358.4065 821.8994,399.5837 862.2849,375.0359 	"/>
	<polygon id="XMLID_201_" class="st56" points="761.1875,469.7373 767.9534,469.7373 760.1338,460.1882 	"/>
	<polygon id="XMLID_200_" class="st57" points="845.6558,181.0278 818.7319,106.592 786.2654,178.6521 	"/>
	<polygon id="XMLID_199_" class="st58" points="786.2654,178.6521 763.3013,288.7219 815.5647,289.5137 	"/>
	<polygon id="XMLID_198_" class="st59" points="760.1338,459.7659 821.8994,399.5837 764.885,413.0454 	"/>
	<polygon id="XMLID_197_" class="st60" points="763.3013,288.7219 800.519,358.4065 815.5647,289.5137 	"/>
	<polygon id="XMLID_196_" class="st61" points="804.1233,1.7373 776.1177,1.7373 780.7224,62.0598 	"/>
	<polygon id="XMLID_195_" class="st53" points="818.7319,106.592 761.7175,143.0181 786.2654,178.6521 	"/>
	<polygon id="XMLID_194_" class="st62" points="764.885,413.0454 821.8994,399.5837 800.519,358.4065 	"/>
	<polygon id="XMLID_193_" class="st63" points="776.1177,1.7373 718.1377,1.7373 780.7224,62.0598 	"/>
	<polygon id="XMLID_192_" class="st55" points="818.7319,106.592 780.7224,62.2473 761.7175,143.0181 	"/>
	<polygon id="XMLID_191_" class="st64" points="753.7393,469.7373 761.1875,469.7373 760.1338,460.1882 	"/>
	<polygon id="XMLID_190_" class="st65" points="786.2654,178.6521 696.7842,214.2861 763.3013,288.7219 	"/>
	<polygon id="XMLID_189_" class="st66" points="780.7224,62.2473 720.5403,108.1758 761.7175,143.0181 	"/>
	<polygon id="XMLID_188_" class="st67" points="800.519,358.4065 728.459,404.335 764.885,413.0454 	"/>
	<polygon id="XMLID_187_" class="st68" points="763.3013,288.7219 728.459,404.335 800.519,358.4065 	"/>
	<polygon id="XMLID_186_" class="st69" points="673.8198,378.9951 728.459,404.335 763.3013,288.7219 	"/>
	<polygon id="XMLID_185_" class="st70" points="761.7175,143.0181 696.7842,214.2861 786.2654,178.6521 	"/>
	<polygon id="XMLID_184_" class="st71" points="780.7224,62.1536 718.1377,1.7373 715.1506,1.7373 720.5403,108.0352 	"/>
	<polygon id="XMLID_183_" class="st72" points="720.5403,108.082 715.1506,1.7373 710.7754,1.7373 673.0281,28.8481 	"/>
	<polygon id="XMLID_182_" class="st73" points="745.5588,469.7373 753.7393,469.7373 760.1338,460.1882 	"/>
	<polygon id="XMLID_181_" class="st74" points="673.8198,378.9951 763.3013,288.7219 642.937,340.1934 	"/>
	<polygon id="XMLID_180_" class="st75" points="763.3013,288.7219 696.7842,214.2861 664.3176,249.9204 	"/>
	<polygon id="XMLID_179_" class="st76" points="728.459,404.335 760.1338,459.7659 764.885,413.0454 	"/>
	<polygon id="XMLID_178_" class="st66" points="761.7175,143.0181 720.5403,108.1758 696.7842,214.2861 	"/>
	<polygon id="XMLID_177_" class="st77" points="642.937,340.1934 763.3013,288.7219 664.3176,249.9204 	"/>
	<polygon id="XMLID_176_" class="st78" points="728.459,404.5461 644.3672,469.7373 664.6426,469.7373 760.1338,460.0826 	"/>
	<polygon id="XMLID_175_" class="st79" points="664.6426,469.7373 745.5588,469.7373 760.1338,460.1882 	"/>
	<polygon id="XMLID_174_" class="st80" points="696.7842,214.2861 720.5403,108.1758 619.9729,200.8245 	"/>
	<polygon id="XMLID_173_" class="st81" points="720.5403,108.1758 655.6069,82.0439 619.9729,200.8245 	"/>
	<polygon id="XMLID_172_" class="st82" points="673.0281,28.9888 655.6069,82.0439 720.5403,108.1758 	"/>
	<polygon id="XMLID_171_" class="st82" points="642.937,394.8325 728.459,404.335 673.8198,378.9951 	"/>
	<polygon id="XMLID_170_" class="st83" points="641.4014,469.7373 644.3672,469.7373 728.459,404.5461 642.937,395.1493 	"/>
	<polygon id="XMLID_169_" class="st84" points="710.7754,1.7373 616.0808,1.7373 673.0281,28.8013 	"/>
	<polygon id="XMLID_168_" class="st85" points="655.6069,82.0439 602.5518,108.9675 619.9729,200.8245 	"/>
	<polygon id="XMLID_167_" class="st86" points="650.8557,250.7122 642.937,340.1934 664.3176,249.9204 	"/>
	<polygon id="XMLID_166_" class="st87" points="696.7842,214.2861 619.9729,200.8245 664.3176,249.9204 	"/>
	<polygon id="XMLID_165_" class="st88" points="664.3176,249.9204 619.9729,200.8245 650.8557,250.7122 	"/>
	<polygon id="XMLID_164_" class="st89" points="673.0281,28.895 616.0808,1.7373 600.5684,1.7373 655.6069,81.9033 	"/>
	<polygon id="XMLID_163_" class="st90" points="643,340.1934 643,394.8325 673.8828,378.9951 	"/>
	<polygon id="XMLID_162_" class="st91" points="580.3794,245.9609 642.937,340.1934 650.8557,250.7122 	"/>
	<polygon id="XMLID_161_" class="st92" points="655.6069,81.9502 600.5684,1.7373 593.9307,1.7373 602.5518,108.8269 	"/>
	<polygon id="XMLID_160_" class="st93" points="619.9729,200.8245 602.5518,108.9675 565.334,147.7693 	"/>
	<polygon id="XMLID_159_" class="st94" points="602.5518,108.8738 593.9307,1.7373 586.9795,1.7373 544.7451,77.9441 	"/>
	<polygon id="XMLID_158_" class="st95" points="555.8313,342.5691 642.937,340.1934 580.3794,245.9609 	"/>
	<polygon id="XMLID_157_" class="st96" points="642.937,395.0437 532.0754,442.6615 632.667,469.7373 641.4014,469.7373 	"/>
	<polygon id="XMLID_156_" class="st97" points="650.8557,250.7122 619.9729,200.8245 580.3794,245.9609 	"/>
	<polygon id="XMLID_155_" class="st98" points="555.8943,342.5691 643,394.8325 643,340.1934 	"/>
	<polygon id="XMLID_154_" class="st99" points="532.0754,442.3447 642.937,394.8325 555.8313,342.5691 	"/>
	<polygon id="XMLID_153_" class="st100" points="544.1409,469.7373 632.667,469.7373 532.0754,442.7671 	"/>
	<polygon id="XMLID_152_" class="st101" points="529.9177,469.7373 544.1409,469.7373 532.0754,442.7671 	"/>
	<polygon id="XMLID_151_" class="st102" points="580.3794,245.9609 619.9729,200.8245 547.1208,223.7886 	"/>
	<polygon id="XMLID_150_" class="st103" points="619.9729,200.8245 565.334,147.7693 547.1208,223.7886 	"/>
	<polygon id="XMLID_149_" class="st104" points="501.9844,395.6245 532.0754,442.3447 555.8313,342.5691 	"/>
	<polygon id="XMLID_148_" class="st105" points="504.3599,265.7578 555.8313,342.5691 580.3794,245.9609 	"/>
	<polygon id="XMLID_147_" class="st106" points="586.9795,1.7373 555.9004,1.7373 504.3599,17.0171 544.7451,77.9441 	"/>
	<polygon id="XMLID_146_" class="st107" points="602.5518,108.9675 544.7451,78.0847 565.334,147.7693 	"/>
	<polygon id="XMLID_145_" class="st108" points="555.9004,1.7373 523.0347,1.7373 504.3599,16.9233 	"/>
	<polygon id="XMLID_144_" class="st109" points="565.334,147.7693 514.6543,192.1138 547.1208,223.7886 	"/>
	<polygon id="XMLID_143_" class="st110" points="547.1208,223.7886 504.3599,265.7578 580.3794,245.9609 	"/>
	<polygon id="XMLID_142_" class="st111" points="523.0347,1.7373 507.8853,1.7373 504.3599,16.9233 	"/>
	<polygon id="XMLID_141_" class="st112" points="507.8853,1.7373 505.335,1.7373 504.3599,16.9233 	"/>
	<polygon id="XMLID_140_" class="st113" points="504.3599,17.1108 494.0654,36.1157 544.7451,78.0847 	"/>
	<polygon id="XMLID_139_" class="st114" points="490.1062,341.7773 555.8313,342.5691 504.3599,265.7578 	"/>
	<polygon id="XMLID_138_" class="st115" points="544.7451,78.0847 447.3452,118.47 565.334,147.7693 	"/>
	<polygon id="XMLID_137_" class="st116" points="565.334,147.7693 447.3452,118.47 514.6543,192.1138 	"/>
	<polygon id="XMLID_136_" class="st117" points="490.1062,341.7773 501.9844,395.6245 555.8313,342.5691 	"/>
	<polygon id="XMLID_135_" class="st118" points="547.1208,223.7886 514.6543,192.1138 504.3599,265.7578 	"/>
	<polygon id="XMLID_134_" class="st119" points="494.0654,36.1157 441.8022,74.1252 544.7451,78.0847 	"/>
	<polygon id="XMLID_133_" class="st120" points="544.7451,78.0847 441.8022,74.1252 447.3452,118.47 	"/>
	<polygon id="XMLID_132_" class="st121" points="488.0713,469.7373 529.9177,469.7373 532.0754,442.7671 	"/>
	<polygon id="XMLID_131_" class="st122" points="467.0449,469.7373 488.0713,469.7373 532.0754,442.5559 501.9844,395.9413 	"/>
	<polygon id="XMLID_130_" class="st123" points="501.9844,395.8357 424.3811,467.2094 428.3872,469.7373 467.0449,469.7373 	"/>
	<polygon id="XMLID_129_" class="st124" points="504.3599,265.7578 376.0771,181.8196 406.168,294.2651 	"/>
	<polygon id="XMLID_128_" class="st125" points="505.335,1.7373 442.1921,1.7373 504.3599,16.9233 	"/>
	<polygon id="XMLID_127_" class="st126" points="514.6543,192.1138 376.0771,181.8196 504.3599,265.7578 	"/>
	<polygon id="XMLID_126_" class="st127" points="514.6543,192.1138 410.1274,143.0181 376.0771,181.8196 	"/>
	<polygon id="XMLID_125_" class="st128" points="447.3452,118.47 410.1274,143.0181 514.6543,192.1138 	"/>
	<polygon id="XMLID_124_" class="st129" points="410.1274,316.4375 490.1062,341.7773 504.3599,265.7578 	"/>
	<polygon id="XMLID_123_" class="st130" points="406.168,294.2651 410.1274,316.4375 504.3599,265.7578 	"/>
	<polygon id="XMLID_122_" class="st131" points="392.7063,406.7104 424.3811,466.8926 501.9844,395.6245 	"/>
	<polygon id="XMLID_121_" class="st132" points="504.3599,17.0171 442.1921,1.7373 422.0205,1.7373 494.0654,35.9751 	"/>
	<polygon id="XMLID_120_" class="st133" points="392.7063,406.7104 501.9844,395.6245 490.1062,341.7773 	"/>
	<polygon id="XMLID_119_" class="st134" points="410.1274,316.4375 392.7063,406.7104 490.1062,341.7773 	"/>
	<polygon id="XMLID_118_" class="st135" points="494.0654,36.022 422.0205,1.7373 405.7019,1.7373 441.8022,73.9846 	"/>
	<polygon id="XMLID_117_" class="st136" points="423.2026,469.7373 428.3872,469.7373 424.3811,467.3149 	"/>
	<polygon id="XMLID_116_" class="st137" points="441.8022,74.1252 361.0315,86.7952 410.1274,143.0181 	"/>
	<polygon id="XMLID_115_" class="st138" points="441.8022,74.0315 405.7019,1.7373 396.394,1.7373 361.0315,86.6545 	"/>
	<polygon id="XMLID_114_" class="st139" points="447.3452,118.47 441.8022,74.1252 410.1274,143.0181 	"/>
	<polygon id="XMLID_113_" class="st140" points="364.9907,326.7317 392.7063,406.7104 410.1274,316.4375 	"/>
	<polygon id="XMLID_111_" class="st141" points="406.168,294.2651 376.0771,181.8196 367.3665,309.3105 	"/>
	<polygon id="XMLID_110_" class="st142" points="410.1274,143.0181 361.0315,86.7952 357.864,132.7236 	"/>
	<polygon id="XMLID_109_" class="st143" points="424.3811,467.1038 313.5193,465.6256 319.0012,469.7373 423.2026,469.7373 	"/>
	<polygon id="XMLID_108_" class="st144" points="313.5193,465.3088 424.3811,466.8926 392.7063,406.7104 	"/>
	<polygon id="XMLID_107_" class="st145" points="376.0771,181.8196 328.5649,184.9871 367.3665,309.3105 	"/>
	<polygon id="XMLID_106_" class="st146" points="342.8184,397.208 392.7063,406.7104 364.9907,326.7317 	"/>
	<polygon id="XMLID_105_" class="st147" points="361.0315,86.7014 396.394,1.7373 332.9333,1.7373 305.6006,5.884 	"/>
	<polygon id="XMLID_104_" class="st148" points="410.1274,143.0181 357.864,132.7236 376.0771,181.8196 	"/>
	<polygon id="XMLID_103_" class="st149" points="367.3665,309.3105 410.1274,316.4375 406.168,294.2651 	"/>
	<polygon id="XMLID_102_" class="st150" points="364.9907,326.7317 410.1274,316.4375 367.3665,309.3105 	"/>
	<polygon id="XMLID_101_" class="st151" points="342.8184,397.208 313.5193,465.3088 392.7063,406.7104 	"/>
	<polygon id="XMLID_100_" class="st152" points="367.3665,309.3105 328.5649,184.9871 280.2607,281.5952 	"/>
	<polygon id="XMLID_99_" class="st153" points="332.9333,1.7373 309.5559,1.7373 305.6006,5.8372 	"/>
	<polygon id="XMLID_98_" class="st154" points="314.6492,469.7373 319.0012,469.7373 313.5193,465.7312 	"/>
	<polygon id="XMLID_97_" class="st155" points="294.634,469.7373 314.6492,469.7373 313.5193,465.7312 	"/>
	<polygon id="XMLID_96_" class="st156" points="361.0315,86.7952 305.6006,6.0247 289.7632,59.0798 	"/>
	<polygon id="XMLID_95_" class="st157" points="280.2607,281.5952 295.3064,314.0618 367.3665,309.3105 	"/>
	<polygon id="XMLID_94_" class="st148" points="376.0771,181.8196 357.864,132.7236 328.5649,184.9871 	"/>
	<polygon id="XMLID_93_" class="st158" points="295.3064,314.0618 342.8184,397.208 364.9907,326.7317 	"/>
	<polygon id="XMLID_92_" class="st159" points="309.5559,1.7373 302.2817,1.7373 305.6006,5.8372 	"/>
	<polygon id="XMLID_91_" class="st160" points="367.3665,309.3105 295.3064,314.0618 364.9907,326.7317 	"/>
	<polygon id="XMLID_90_" class="st161" points="289.7632,59.0798 256.5049,98.6733 357.864,132.7236 	"/>
	<polygon id="XMLID_89_" class="st162" points="357.864,132.7236 361.0315,86.7952 289.7632,59.0798 	"/>
	<polygon id="XMLID_88_" class="st53" points="328.5649,184.9871 357.864,132.7236 260.4641,168.3579 	"/>
	<polygon id="XMLID_87_" class="st76" points="357.864,132.7236 256.5049,98.6733 260.4641,168.3579 	"/>
	<polygon id="XMLID_86_" class="st53" points="278.677,412.2537 313.5193,465.3088 342.8184,397.208 	"/>
	<polygon id="XMLID_85_" class="st163" points="295.3064,314.0618 278.677,412.2537 342.8184,397.208 	"/>
	<polygon id="XMLID_84_" class="st164" points="305.6006,5.9309 302.2817,1.7373 260.3359,1.7373 260.4641,2.7166 	"/>
	<polygon id="XMLID_83_" class="st165" points="328.5649,184.9871 260.4641,168.3579 280.2607,281.5952 	"/>
	<polygon id="XMLID_82_" class="st166" points="260.4641,168.3579 219.2869,271.3008 280.2607,281.5952 	"/>
	<polygon id="XMLID_81_" class="st167" points="305.6006,6.0247 260.4641,2.8572 289.7632,59.0798 	"/>
	<polygon id="XMLID_80_" class="st0" points="278.677,412.4648 287.1592,469.7373 294.634,469.7373 313.5193,465.6256 	"/>
	<polygon id="XMLID_79_" class="st168" points="162.2722,318.021 278.677,412.2537 295.3064,314.0618 	"/>
	<polygon id="XMLID_78_" class="st169" points="260.4641,168.3579 192.3633,231.7075 219.2869,271.3008 	"/>
	<polygon id="XMLID_77_" class="st170" points="148.8105,381.3706 278.677,412.2537 162.2722,318.021 	"/>
	<polygon id="XMLID_76_" class="st171" points="221.5623,469.7373 280.5562,469.7373 224.0381,457.0208 	"/>
	<polygon id="XMLID_75_" class="st1" points="280.5562,469.7373 287.1592,469.7373 278.677,412.4648 224.0381,456.9152 	"/>
	<polygon id="XMLID_74_" class="st172" points="162.2722,318.021 295.3064,314.0618 219.2869,271.3008 	"/>
	<polygon id="XMLID_73_" class="st173" points="219.2869,271.3008 295.3064,314.0618 280.2607,281.5952 	"/>
	<polygon id="XMLID_72_" class="st174" points="289.7632,59.0798 260.4641,2.8572 256.5049,98.6733 	"/>
	<polygon id="XMLID_71_" class="st175" points="260.4641,2.8572 186.8203,22.6538 256.5049,98.6733 	"/>
	<polygon id="XMLID_70_" class="st176" points="224.0381,456.5984 278.677,412.2537 162.2722,420.9641 	"/>
	<polygon id="XMLID_69_" class="st177" points="162.2722,420.9641 278.677,412.2537 148.8105,381.3706 	"/>
	<polygon id="XMLID_68_" class="st178" points="256.5049,98.6733 186.8203,22.6538 182.0688,104.2163 	"/>
	<polygon id="XMLID_67_" class="st179" points="256.5049,98.6733 182.0688,104.2163 260.4641,168.3579 	"/>
	<polygon id="XMLID_66_" class="st180" points="260.3359,1.9248 259.4265,1.9248 260.4641,2.8572 	"/>
	<polygon id="XMLID_65_" class="st181" points="186.8203,22.5601 260.4641,2.7166 259.4265,1.7373 189.8433,1.7373 	"/>
	<polygon id="XMLID_64_" class="st182" points="182.0688,104.2163 192.3633,231.7075 260.4641,168.3579 	"/>
	<polygon id="XMLID_63_" class="st183" points="182.0688,104.2163 100.5063,137.4749 192.3633,231.7075 	"/>
	<polygon id="XMLID_62_" class="st184" points="192.3633,231.7075 100.5063,137.4749 102.8821,211.1187 	"/>
	<polygon id="XMLID_61_" class="st185" points="186.8203,22.5601 189.8433,1.7373 161.7834,1.7373 159.1047,5.884 	"/>
	<polygon id="XMLID_60_" class="st186" points="125.811,469.7373 179.4092,469.7373 162.2722,421.3865 	"/>
	<polygon id="XMLID_59_" class="st187" points="162.2722,421.1753 179.4092,469.7373 221.5623,469.7373 224.0381,456.9152 	"/>
	<polygon id="XMLID_58_" class="st188" points="182.0688,104.2163 186.8203,22.6538 165.4397,25.8213 	"/>
	<polygon id="XMLID_57_" class="st189" points="219.2869,271.3008 192.3633,231.7075 148.8105,245.9609 	"/>
	<polygon id="XMLID_56_" class="st190" points="148.8105,245.9609 162.2722,318.021 219.2869,271.3008 	"/>
	<polygon id="XMLID_55_" class="st191" points="192.3633,231.7075 102.8821,211.1187 148.8105,245.9609 	"/>
	<polygon id="XMLID_54_" class="st192" points="165.4397,25.8213 117.1357,52.7449 182.0688,104.2163 	"/>
	<polygon id="XMLID_53_" class="st193" points="161.7834,1.7373 156.8032,1.7373 159.1047,5.8372 	"/>
	<polygon id="XMLID_52_" class="st194" points="125.811,469.7373 162.062,421.1753 89,427.2991 89,469.7373 	"/>
	<polygon id="XMLID_51_" class="st195" points="186.8203,22.6538 159.1047,6.0247 165.4397,25.8213 	"/>
	<polygon id="XMLID_50_" class="st196" points="117.1357,52.7449 100.5063,137.4749 182.0688,104.2163 	"/>
	<polygon id="XMLID_49_" class="st197" points="156.8032,1.7373 136.4734,1.7373 159.1047,5.8372 	"/>
	<polygon id="XMLID_48_" class="st198" points="148.8105,245.9609 83.8772,323.5642 162.2722,318.021 	"/>
	<polygon id="XMLID_47_" class="st199" points="83.8772,323.5642 148.8105,381.3706 162.2722,318.021 	"/>
	<polygon id="XMLID_46_" class="st200" points="159.1047,6.0247 117.1357,52.7449 165.4397,25.8213 	"/>
	<polygon id="XMLID_45_" class="st201" points="148.8105,381.3706 89.4204,427.2991 162.2722,420.9641 	"/>
	<polygon id="XMLID_44_" class="st202" points="159.1047,5.9309 136.4734,1.7373 65.7104,1.7373 117.1357,52.6043 	"/>
	<polygon id="XMLID_43_" class="st203" points="100.5063,137.4749 79.918,158.8555 102.8821,211.1187 	"/>
	<polygon id="XMLID_42_" class="st204" points="117.1357,52.7449 76.7505,67.7905 100.5063,137.4749 	"/>
	<polygon id="XMLID_41_" class="st205" points="83.8772,323.5642 89.4204,427.2991 148.8105,381.3706 	"/>
	<polygon id="XMLID_40_" class="st206" points="102.8821,211.1187 79.918,221.4131 148.8105,245.9609 	"/>
	<polygon id="XMLID_39_" class="st207" points="79.918,221.4131 83.8772,323.5642 148.8105,245.9609 	"/>
	<polygon id="XMLID_38_" class="st208" points="44.2837,387.7056 89.4204,427.2991 83.8772,323.5642 	"/>
	<polygon id="XMLID_37_" class="st209" points="89,469.7373 89,427.2991 70.9849,469.7373 	"/>
	<polygon id="XMLID_36_" class="st210" points="65.7104,1.7373 55.0083,1.7373 76.7505,67.6968 117.1357,52.6043 	"/>
	<polygon id="XMLID_35_" class="st211" points="79.918,221.4131 18.9438,294.2651 83.8772,323.5642 	"/>
	<polygon id="XMLID_34_" class="st212" points="102.9641,211.1187 80,158.8555 80,221.4131 	"/>
	<polygon id="XMLID_33_" class="st213" points="10.2334,245.9609 18.9438,294.2651 79.918,221.4131 	"/>
	<polygon id="XMLID_32_" class="st214" points="79.918,158.8555 76.7505,67.7905 7.8577,148.561 	"/>
	<polygon id="XMLID_31_" class="st214" points="100.5063,137.4749 76.7505,67.7905 79.918,158.8555 	"/>
	<polygon id="XMLID_30_" class="st215" points="80,158.8555 7.9397,148.561 80,221.4131 	"/>
	<polygon id="XMLID_29_" class="st216" points="89.3735,427.5103 1,442.5278 1,446.9087 22.0637,469.7373 70.9849,469.7373 	"/>
	<polygon id="XMLID_28_" class="st217" points="89.3735,427.2991 44.2134,387.7056 1,438.9478 1,442.5278 	"/>
	<polygon id="XMLID_27_" class="st218" points="1,469.7373 22.0637,469.7373 1,446.9087 	"/>
	<polygon id="XMLID_26_" class="st219" points="76.7036,67.6968 55.0083,1.7373 24.5093,1.7373 1,16.4421 1,44.6416 	"/>
	<polygon id="XMLID_25_" class="st220" points="7.8577,148.561 10.2334,245.9609 79.918,221.4131 	"/>
	<polygon id="XMLID_24_" class="st221" points="18.9438,294.2651 44.2837,387.7056 83.8772,323.5642 	"/>
	<polygon id="XMLID_23_" class="st222" points="76.7036,67.7905 1,44.6416 1,127.9819 7.7874,148.561 	"/>
	<polygon id="XMLID_22_" class="st223" points="18.897,294.2651 1,315.4429 1,364.9243 44.2134,387.7056 	"/>
	<polygon id="XMLID_21_" class="st224" points="1,1.7373 1,16.4421 24.5093,1.7373 	"/>
	<polygon id="XMLID_20_" class="st225" points="7.8108,148.561 1,160.3145 1,243.5332 10.1631,245.9609 	"/>
	<polygon id="XMLID_19_" class="st226" points="1,364.9243 1,438.9478 44.1899,387.7056 	"/>
	<polygon id="XMLID_18_" class="st227" points="10.1865,245.9609 1,243.5332 1,275.7012 18.8735,294.2651 	"/>
	<polygon id="XMLID_17_" class="st228" points="1,275.7012 1,315.4429 18.8501,294.2651 	"/>
	<polygon id="XMLID_16_" class="st153" points="1,127.9819 1,160.3145 7.7639,148.561 	"/>
</g>
</svg>
